# Blender v2.79 (sub 0) OBJ File: 'color.blend'
# www.blender.org
mtllib color.mtl
o Sphere
v 0.000000 -0.933666 0.066334
v -0.000000 0.066334 -1.860598
v 0.206676 -0.140343 -1.222598
v 0.500000 -0.433666 -0.640773
v 0.653281 -0.586948 -0.316350
v 0.707107 -0.640773 0.066334
v 0.653281 -0.586948 0.449017
v 0.500000 -0.433666 0.773440
v 0.270598 -0.204264 0.990213
v 0.292284 0.066334 -1.222598
v 0.707106 0.066334 -0.640773
v 0.923879 0.066334 -0.316350
v 1.000000 0.066334 0.066334
v 0.923879 0.066334 0.449017
v 0.707106 0.066334 0.773440
v 0.382683 0.066334 0.990213
v 0.000000 0.066334 1.066334
v 0.206676 0.273010 -1.222599
v 0.500000 0.566333 -0.640773
v 0.653281 0.719615 -0.316350
v 0.707107 0.773440 0.066334
v 0.653281 0.719615 0.449017
v 0.500000 0.566334 0.773440
v 0.270598 0.336932 0.990213
v 0.000000 0.358618 -1.222599
v 0.000000 0.773440 -0.640773
v 0.000000 0.990213 -0.316350
v 0.000000 1.066334 0.066334
v 0.000000 0.990213 0.449017
v 0.000000 0.773440 0.773440
v 0.000000 0.449017 0.990213
v -0.206676 0.273010 -1.222599
v -0.500000 0.566333 -0.640773
v -0.653281 0.719615 -0.316350
v -0.707106 0.773440 0.066334
v -0.653281 0.719615 0.449017
v -0.500000 0.566334 0.773440
v -0.270598 0.336932 0.990213
v -0.292284 0.066334 -1.222599
v -0.707106 0.066334 -0.640773
v -0.923879 0.066334 -0.316350
v -1.000000 0.066334 0.066334
v -0.923879 0.066334 0.449017
v -0.707106 0.066334 0.773440
v -0.382683 0.066334 0.990213
v -0.206676 -0.140343 -1.222599
v -0.500000 -0.433666 -0.640773
v -0.653281 -0.586947 -0.316350
v -0.707106 -0.640773 0.066334
v -0.653281 -0.586947 0.449017
v -0.500000 -0.433666 0.773440
v -0.270598 -0.204264 0.990213
v -0.000000 -0.225951 -1.222598
v -0.000000 -0.640773 -0.640773
v -0.000000 -0.857545 -0.316350
v -0.000000 -0.857545 0.449017
v -0.000000 -0.640773 0.773440
v -0.000000 -0.316350 0.990213
vn 0.0000 -0.4226 0.9063
vn 0.0000 -0.7296 0.6838
vn 0.5159 -0.5159 0.6838
vn 0.2988 -0.2988 0.9063
vn 0.0000 -0.9303 0.3668
vn 0.0000 -1.0000 0.0000
vn 0.7071 -0.7071 0.0000
vn 0.6578 -0.6578 0.3668
vn 0.0000 -0.9303 -0.3668
vn 0.0000 -0.8241 -0.5664
vn 0.5828 -0.5828 -0.5664
vn 0.6578 -0.6578 -0.3668
vn 0.0000 -0.8595 -0.5111
vn 0.0000 0.0000 -1.0000
vn 0.6077 -0.6077 -0.5111
vn 0.0000 0.0000 1.0000
vn 0.4226 0.0000 0.9063
vn 0.9303 0.0000 0.3668
vn 0.7296 0.0000 0.6838
vn 0.9303 0.0000 -0.3668
vn 1.0000 0.0000 0.0000
vn 0.8595 0.0000 -0.5111
vn 0.8241 0.0000 -0.5664
vn 0.6578 0.6578 -0.3668
vn 0.7071 0.7071 0.0000
vn 0.6077 0.6077 -0.5111
vn 0.5828 0.5828 -0.5664
vn 0.5159 0.5159 0.6838
vn 0.2988 0.2988 0.9063
vn 0.6578 0.6578 0.3668
vn 0.0000 0.7296 0.6838
vn 0.0000 0.4226 0.9063
vn 0.0000 1.0000 0.0000
vn 0.0000 0.9303 0.3668
vn 0.0000 0.8241 -0.5664
vn 0.0000 0.9303 -0.3668
vn 0.0000 0.8595 -0.5111
vn -0.5828 0.5828 -0.5664
vn -0.6578 0.6578 -0.3668
vn -0.6077 0.6077 -0.5111
vn -0.2988 0.2988 0.9063
vn -0.6578 0.6578 0.3668
vn -0.5159 0.5159 0.6838
vn -0.7071 0.7071 0.0000
vn -0.4226 0.0000 0.9063
vn -0.9303 0.0000 0.3668
vn -0.7296 0.0000 0.6838
vn -0.9303 0.0000 -0.3668
vn -1.0000 0.0000 0.0000
vn -0.8595 0.0000 -0.5111
vn -0.8241 0.0000 -0.5664
vn -0.6077 -0.6077 -0.5111
vn -0.5828 -0.5828 -0.5664
vn -0.5159 -0.5159 0.6838
vn -0.2988 -0.2988 0.9063
vn -0.7071 -0.7071 0.0000
vn -0.6578 -0.6578 0.3668
vn -0.6578 -0.6578 -0.3668
usemtl None
s 1
f 58//1 57//2 8//3 9//4
f 56//5 1//6 6//7 7//8
f 55//9 54//10 4//11 5//12
f 53//13 2//14 3//15
f 17//16 58//1 9//4
f 57//2 56//5 7//8 8//3
f 1//6 55//9 5//12 6//7
f 54//10 53//13 3//15 4//11
f 17//16 9//4 16//17
f 8//3 7//8 14//18 15//19
f 6//7 5//12 12//20 13//21
f 4//11 3//15 10//22 11//23
f 9//4 8//3 15//19 16//17
f 7//8 6//7 13//21 14//18
f 5//12 4//11 11//23 12//20
f 3//15 2//14 10//22
f 13//21 12//20 20//24 21//25
f 11//23 10//22 18//26 19//27
f 16//17 15//19 23//28 24//29
f 14//18 13//21 21//25 22//30
f 12//20 11//23 19//27 20//24
f 10//22 2//14 18//26
f 17//16 16//17 24//29
f 15//19 14//18 22//30 23//28
f 24//29 23//28 30//31 31//32
f 22//30 21//25 28//33 29//34
f 20//24 19//27 26//35 27//36
f 18//26 2//14 25//37
f 17//16 24//29 31//32
f 23//28 22//30 29//34 30//31
f 21//25 20//24 27//36 28//33
f 19//27 18//26 25//37 26//35
f 27//36 26//35 33//38 34//39
f 25//37 2//14 32//40
f 17//16 31//32 38//41
f 30//31 29//34 36//42 37//43
f 28//33 27//36 34//39 35//44
f 26//35 25//37 32//40 33//38
f 31//32 30//31 37//43 38//41
f 29//34 28//33 35//44 36//42
f 17//16 38//41 45//45
f 37//43 36//42 43//46 44//47
f 35//44 34//39 41//48 42//49
f 33//38 32//40 39//50 40//51
f 38//41 37//43 44//47 45//45
f 36//42 35//44 42//49 43//46
f 34//39 33//38 40//51 41//48
f 32//40 2//14 39//50
f 40//51 39//50 46//52 47//53
f 45//45 44//47 51//54 52//55
f 43//46 42//49 49//56 50//57
f 41//48 40//51 47//53 48//58
f 39//50 2//14 46//52
f 17//16 45//45 52//55
f 44//47 43//46 50//57 51//54
f 42//49 41//48 48//58 49//56
f 52//55 51//54 57//2 58//1
f 50//57 49//56 1//6 56//5
f 48//58 47//53 54//10 55//9
f 46//52 2//14 53//13
f 17//16 52//55 58//1
f 51//54 50//57 56//5 57//2
f 49//56 48//58 55//9 1//6
f 47//53 46//52 53//13 54//10
