# WaveFront *.obj file (generated by CINEMA 4D)

v 15.15535259246826 0 1.23668622970581
v 20.74762725830078 3.98287224769592 2.9287850856781
v 24.84464645385742 0 -1.23668622970581
v 19.25237274169922 -3.98287224769592 -2.9287850856781
v 11.61926460266113 11.78448581695557 -12.9508056640625
v 17.20357322692871 16.11888694763184 -12.78207969665527
v 20.69949913024902 11.78448581695557 -17.14000129699707
v 15.11518955230713 7.4500846862793 -17.3087272644043
v 2.14684844017029 19.02935981750488 -27.04487228393555
v 6.72243738174438 23.93842506408691 -29.27311515808105
v 10.16303443908691 19.02935981750488 -33.02323150634766
v 5.5874457359314 14.12029457092285 -30.79498863220215
v -10.20638751983643 19.01562118530273 -42.03490829467773
v -6.76839351654053 23.92342185974121 -45.78906631469727
v -2.18813419342041 19.01562118530273 -48.01049041748047
v -5.62612867355347 14.10782337188721 -44.25633239746094
v -20.72725868225098 11.74850845336914 -57.92016983032227
v -17.22957611083984 16.080810546875 -62.27876663208008
v -11.64387226104736 11.74850845336914 -62.10252380371094
v -15.14155387878418 7.41620683670044 -57.74392318725586
v -25 0.00000599301575 -74.99999237060547
v -20 3.93520331382751 -78.08450317382812
v -15 0.00000599301575 -74.99999237060547
v -20 -3.93519115447998 -71.91548156738281
v -20.72726631164551 -11.74849891662598 -92.07981109619141
v -15.14156150817871 -7.41619777679443 -92.25605773925781
v -11.64387798309326 -11.74849891662598 -87.8974609375
v -17.22958374023438 -16.0807991027832 -87.72121429443359
v -10.20639991760254 -19.0156192779541 -107.96508026123047
v -5.62613916397095 -14.10781955718994 -105.74365234375
v -2.18814539909363 -19.0156192779541 -101.98949432373047
v -6.76840543746948 -23.92341613769531 -104.21091461181641
v 2.14683747291565 -19.02936363220215 -122.95510864257812
v 5.58743524551392 -14.1202974319458 -119.20499420166016
v 10.16302299499512 -19.02936363220215 -116.97675323486328
v 6.72242498397827 -23.93842887878418 -120.72686767578125
v 11.61925888061523 -11.78449535369873 -137.04917907714844
v 15.11518287658691 -7.45009326934814 -132.69125366210938
v 20.69948959350586 -11.78449535369873 -132.8599853515625
v 17.20356559753418 -16.11889839172363 -137.2178955078125
v 15.15151786804199 -0.01181903667748 -151.22161865234375
v 19.24853515625 3.97105503082275 -147.05613708496094
v 24.8408088684082 -0.01181903667748 -148.74822998046875
v 20.74379348754883 -3.99469304084778 -152.91371154785156
# 44 vertices

vn -0.53719180822372 0.59134435653687 0.6014456152916
vn -0.49716889858246 0.61783289909363 0.60918432474136
vn 0.8187198638916 0.5358372926712 0.20633994042873
vn 0.78541082143784 0.61838585138321 0.02699545025826
vn 0.54039335250854 -0.58949518203735 -0.60039192438126
vn 0.50063192844391 -0.61438047885895 -0.60983961820602
vn -0.82004231214523 -0.53164720535278 -0.21185350418091
vn -0.78668123483658 -0.61669188737869 -0.02870028652251
vn -0.50164943933487 0.68169736862183 0.53257542848587
vn 0.6406072974205 0.70525634288788 -0.30370345711708
vn 0.50258511304855 -0.67894339561462 -0.53520476818085
vn -0.63962548971176 -0.70501071214676 0.30633181333542
vn -0.64122313261032 0.70513337850571 0.30268761515617
vn 0.50134360790253 0.68148243427277 -0.53313821554184
vn 0.64025163650513 -0.70488911867142 -0.30530178546906
vn -0.5022936463356 -0.67872089147568 0.53576022386551
vn -0.76808273792267 0.63839483261108 -0.05000969022512
vn 0.5278006196022 0.59721082448959 -0.60395830869675
vn 0.76664137840271 -0.63992410898209 0.0525179207325
vn -0.53731632232666 -0.59082943201065 0.6018403172493
vn -0.7079930305481 0.56579953432083 -0.42263081669807
vn 0.69892072677612 0.57141971588135 -0.43010380864143
vn 0.69892078638077 -0.57141977548599 0.43010360002518
vn -0.70799297094345 -0.56579947471619 0.42263093590736
vn -0.53731626272202 0.5908294916153 -0.60184037685394
vn 0.766641497612 0.6399239897728 -0.05251827090979
vn 0.52780067920685 -0.59721088409424 0.60395830869675
vn -0.76808273792267 -0.63839483261108 0.05001017823815
vn -0.50229346752167 0.67872095108032 -0.5357603430748
vn 0.64025187492371 0.70488893985748 0.3053015768528
vn 0.50134348869324 -0.68148243427277 0.53313827514648
vn -0.64122313261032 -0.70513355731964 -0.30268722772598
vn -0.63962537050247 0.70501071214676 -0.30633208155632
vn 0.50258541107178 0.67894315719604 0.5352047085762
vn 0.64060711860657 -0.70525634288788 0.30370378494263
vn -0.50164937973022 -0.68169748783112 -0.53257524967194
vn -0.78668183088303 0.61669111251831 0.02870104089379
vn 0.50063282251358 0.61437928676605 0.60983997583389
vn 0.78541016578674 -0.61838680505753 -0.02699335105717
vn -0.49716764688492 -0.61783319711685 -0.60918509960175
vn -0.82004308700562 0.53164523839951 0.2118553519249
vn 0.54039466381073 0.58949327468872 0.60039258003235
vn 0.81871926784515 -0.53583961725235 -0.20633631944656
vn -0.53718936443329 -0.59134489297867 -0.60144728422165
# 44 normals

vt 0 1 0
vt 0.25 1 0
vt 0.25 0.89969885349274 0
vt 0 0.89969885349274 0
vt 0.5 1 0
vt 0.5 0.89969885349274 0
vt 0.75 1 0
vt 0.75 0.89969885349274 0
vt 1 1 0
vt 1 0.89969885349274 0
vt 0.25 0.79976165294647 0
vt 0 0.79976165294647 0
vt 0.5 0.79976165294647 0
vt 0.75 0.79976165294647 0
vt 1 0.79976165294647 0
vt 0.25 0.69982433319092 0
vt 0 0.69982433319092 0
vt 0.5 0.69982433319092 0
vt 0.75 0.69982433319092 0
vt 1 0.69982433319092 0
vt 0.25 0.59988707304001 0
vt 0 0.59988707304001 0
vt 0.5 0.59988707304001 0
vt 0.75 0.59988707304001 0
vt 1 0.59988707304001 0
vt 0.25 0.4999498128891 0
vt 0 0.4999498128891 0
vt 0.5 0.4999498128891 0
vt 0.75 0.4999498128891 0
vt 1 0.4999498128891 0
vt 0.25 0.40001249313354 0
vt 0 0.40001249313354 0
vt 0.5 0.40001249313354 0
vt 0.75 0.40001249313354 0
vt 1 0.40001249313354 0
vt 0.25 0.30007529258728 0
vt 0 0.30007529258728 0
vt 0.5 0.30007529258728 0
vt 0.75 0.30007529258728 0
vt 1 0.30007529258728 0
vt 0.25 0.20013797283173 0
vt 0 0.20013797283173 0
vt 0.5 0.20013797283173 0
vt 0.75 0.20013797283173 0
vt 1 0.20013797283173 0
vt 0.25 0.10020077228546 0
vt 0 0.10020077228546 0
vt 0.5 0.10020077228546 0
vt 0.75 0.10020077228546 0
vt 1 0.10020077228546 0
vt 0.25 0 0
vt 0 0 0
vt 0.5 0 0
vt 0.75 0 0
vt 1 0 0
# 55 texture coordinates

o Sweep
usemtl default
f 1/1/1 2/2/1 6/3/2 5/4/2
f 2/2/3 3/5/3 7/6/4 6/3/4
f 3/5/5 4/7/5 8/8/6 7/6/6
f 4/7/7 1/9/7 5/10/8 8/8/8
f 5/4/2 6/3/2 10/11/9 9/12/9
f 6/3/4 7/6/4 11/13/10 10/11/10
f 7/6/6 8/8/6 12/14/11 11/13/11
f 8/8/8 5/10/8 9/15/12 12/14/12
f 9/12/9 10/11/9 14/16/13 13/17/13
f 10/11/10 11/13/10 15/18/14 14/16/14
f 11/13/11 12/14/11 16/19/15 15/18/15
f 12/14/12 9/15/12 13/20/16 16/19/16
f 13/17/13 14/16/13 18/21/17 17/22/17
f 14/16/14 15/18/14 19/23/18 18/21/18
f 15/18/15 16/19/15 20/24/19 19/23/19
f 16/19/16 13/20/16 17/25/20 20/24/20
f 17/22/17 18/21/17 22/26/21 21/27/21
f 18/21/18 19/23/18 23/28/22 22/26/22
f 19/23/19 20/24/19 24/29/23 23/28/23
f 20/24/20 17/25/20 21/30/24 24/29/24
f 21/27/21 22/26/21 26/31/25 25/32/25
f 22/26/22 23/28/22 27/33/26 26/31/26
f 23/28/23 24/29/23 28/34/27 27/33/27
f 24/29/24 21/30/24 25/35/28 28/34/28
f 25/32/25 26/31/25 30/36/29 29/37/29
f 26/31/26 27/33/26 31/38/30 30/36/30
f 27/33/27 28/34/27 32/39/31 31/38/31
f 28/34/28 25/35/28 29/40/32 32/39/32
f 29/37/29 30/36/29 34/41/33 33/42/33
f 30/36/30 31/38/30 35/43/34 34/41/34
f 31/38/31 32/39/31 36/44/35 35/43/35
f 32/39/32 29/40/32 33/45/36 36/44/36
f 33/42/33 34/41/33 38/46/37 37/47/37
f 34/41/34 35/43/34 39/48/38 38/46/38
f 35/43/35 36/44/35 40/49/39 39/48/39
f 36/44/36 33/45/36 37/50/40 40/49/40
f 37/47/37 38/46/37 42/51/41 41/52/41
f 38/46/38 39/48/38 43/53/42 42/51/42
f 39/48/39 40/49/39 44/54/43 43/53/43
f 40/49/40 37/50/40 41/55/44 44/54/44

v 15.15535259246826 0 1.23668622970581
v 20.74762725830078 3.98287224769592 2.9287850856781
v 24.84464645385742 0 -1.23668622970581
v 19.25237274169922 -3.98287224769592 -2.9287850856781
# 4 vertices

vn 0.19702252745628 -0.60454040765762 0.77182447910309
vn 0 0 0
# 2 normals

vt 0.375 0 0
vt 0 0.625 0
vt 0.625 1 0
vt 1 0.375 0
# 4 texture coordinates

o Cap_1
usemtl default
f 48/56/45 47/57/45 46/58/45
f 48/56/45 46/58/45 45/59/45

v 15.15151786804199 -0.01181903667748 -151.22161865234375
v 19.24853515625 3.97105503082275 -147.05613708496094
v 24.8408088684082 -0.01181903667748 -148.74822998046875
v 20.74379348754883 -3.99469304084778 -152.91371154785156
# 4 vertices

vn 0.19702339172363 0.60453993082047 -0.77182465791702
# 1 normal

vt 0 1 0
vt 1 1 0
# 2 texture coordinates

o Cap_2
usemtl default
f 49/60/47 50/52/47 52/61/47
f 50/52/47 51/55/47 52/61/47

